<svg width="20" height="20" viewBox="0 0 20 20" fill="none" xmlns="http://www.w3.org/2000/svg">
<g clip-path="url(#clip0_227_574)">
<path d="M3.725 0L16.275 0C17.2623 0.00220125 18.2084 0.395362 18.9065 1.09346C19.6046 1.79156 19.9978 2.73774 20 3.725L20 16.275C19.9978 17.2623 19.6046 18.2084 18.9065 18.9065C18.2084 19.6046 17.2623 19.9978 16.275 20L3.725 20C2.73775 19.9978 1.79156 19.6046 1.09346 18.9065C0.395363 18.2084 0.00220108 17.2623 0 16.275L0 3.725C0.00220108 2.73774 0.395363 1.79156 1.09346 1.09346C1.79156 0.395362 2.73775 0.00220125 3.725 0ZM1.175 16.275C1.175 16.9513 1.44366 17.5999 1.92188 18.0781C2.4001 18.5563 3.0487 18.825 3.725 18.825L16.275 18.825C16.9513 18.825 17.5999 18.5563 18.0781 18.0781C18.5563 17.5999 18.825 16.9513 18.825 16.275L18.825 3.725C18.825 3.0487 18.5563 2.4001 18.0781 1.92188C17.5999 1.44366 16.9513 1.175 16.275 1.175L3.725 1.175C3.0487 1.175 2.4001 1.44366 1.92188 1.92188C1.44366 2.4001 1.175 3.0487 1.175 3.725L1.175 16.275Z" fill="#62A856"/>
<path d="M11.1707 5.98333C11.2321 5.92059 11.3053 5.87073 11.3861 5.8367C11.467 5.80266 11.5538 5.78513 11.6416 5.78513C11.7293 5.78513 11.8161 5.80266 11.897 5.8367C11.9779 5.87073 12.0511 5.92059 12.1124 5.98333L12.3457 6.225C12.4085 6.28631 12.4583 6.35955 12.4924 6.4404C12.5264 6.52126 12.5439 6.6081 12.5439 6.69583C12.5439 6.78356 12.5264 6.8704 12.4924 6.95126C12.4583 7.03211 12.4085 7.10535 12.3457 7.16666L9.52907 9.99166L12.3457 12.825C12.4085 12.8863 12.4583 12.9596 12.4924 13.0404C12.5264 13.1213 12.5439 13.2081 12.5439 13.2958C12.5439 13.3836 12.5264 13.4704 12.4924 13.5513C12.4583 13.6321 12.4085 13.7054 12.3457 13.7667L12.1124 14.0083C12.0511 14.0711 11.9779 14.1209 11.897 14.155C11.8161 14.189 11.7293 14.2065 11.6416 14.2065C11.5538 14.2065 11.467 14.189 11.3861 14.155C11.3053 14.1209 11.2321 14.0711 11.1707 14.0083L7.64574 10.4667C7.58426 10.4055 7.53548 10.3328 7.50219 10.2527C7.4689 10.1726 7.45176 10.0867 7.45176 10C7.45176 9.91327 7.4689 9.82739 7.50219 9.74731C7.53548 9.66722 7.58426 9.5945 7.64574 9.53333L11.1707 5.98333Z" fill="#62A856"/>
</g>
<defs>
<clipPath id="clip0_227_574">
<rect width="20" height="20" fill="white" transform="matrix(1 0 0 -1 0 20)"/>
</clipPath>
</defs>
</svg>
